<svg xmlns="http://www.w3.org/2000/svg" viewBox="0 0 1465.8 224.0" width="1465.8" height="224.0" role="img" aria-label="Echo Audit">
<path transform="translate(42.00 182.00) scale(0.20000 -0.20000)" d="M84 700V0H460V52H139V358H440V410H139V648H460V700Z" fill="#101828"/>
<path transform="translate(180.80 182.00) scale(0.20000 -0.20000)" d="M103 350Q103 440 141.0 508.0Q179 576 243.0 614.5Q307 653 386 653Q435 653 476.0 642.0Q517 631 551.0 609.5Q585 588 611 558V631Q567 670 515.0 689.5Q463 709 386 709Q313 709 250.5 682.5Q188 656 142.0 608.0Q96 560 70.0 494.0Q44 428 44 350Q44 272 70.0 206.0Q96 140 142.0 92.0Q188 44 250.5 17.5Q313 -9 386 -9Q463 -9 515.0 10.5Q567 30 611 69V143Q585 113 551.5 91.0Q518 69 477.0 58.0Q436 47 386 47Q307 47 243.0 86.0Q179 125 141.0 193.0Q103 261 103 350Z" fill="#101828"/>
<path transform="translate(349.80 182.00) scale(0.20000 -0.20000)" d="M548 700V407H139V700H84V0H139V355H548V0H604V700Z" fill="#101828"/>
<path transform="translate(781.00 182.00) scale(0.20000 -0.20000)" d="M468 235 565 0H627L318 727L9 0H71L167 235ZM318 600 447 287H189Z" fill="#101828"/>
<path transform="translate(940.20 182.00) scale(0.20000 -0.20000)" d="M79 700V226Q79 174 94.0 130.5Q109 87 138.0 56.0Q167 25 208.5 7.5Q250 -10 303 -10Q356 -10 397.5 7.5Q439 25 468.0 56.0Q497 87 512.0 130.5Q527 174 527 226V700H472V226Q472 142 428.0 92.0Q384 42 303 42Q222 42 178.0 92.0Q134 142 134 226V700Z" fill="#101828"/>
<path transform="translate(1093.40 182.00) scale(0.20000 -0.20000)" d="M84 700V0H274Q376 0 453.5 44.0Q531 88 574.5 166.5Q618 245 618.0 350.0Q618 455 574.5 533.5Q531 612 453.5 656.0Q376 700 274 700ZM139 55V645H274Q339 645 392.5 624.0Q446 603 484.0 564.5Q522 526 542.5 471.5Q563 417 563.0 350.0Q563 283 542.5 228.5Q522 174 484.0 135.5Q446 97 392.5 76.0Q339 55 274 55Z" fill="#101828"/>
<path transform="translate(1257.80 182.00) scale(0.20000 -0.20000)" d="M82 700V0H137V700Z" fill="#101828"/>
<path transform="translate(1333.60 182.00) scale(0.20000 -0.20000)" d="M14 648H198V0H253V648H437V700H14Z" fill="#101828"/>
<circle cx="592.20" cy="112.00" r="67.30" fill="none" stroke="#101828" stroke-width="11.00"/>
<path d="M 612.58 76.69 A 40.77 40.77 0 1 1 571.82 76.69" fill="none" stroke="#4F46E5" stroke-width="11.00" stroke-linecap="round"/>
<line x1="599.54" y1="112.00" x2="632.97" y2="112.00" stroke="#4F46E5" stroke-width="11.00" stroke-linecap="round"/>
</svg>